<svg width="799" height="1140" viewBox="0 0 799 1140" fill="none" xmlns="http://www.w3.org/2000/svg">
<g clip-path="url(#clip0_339_4252)">
<path d="M1056 0H-443V1334H1056V0Z" fill="url(#paint0_linear_339_4252)"/>
<path d="M783.422 1179.47C585.554 1335.55 63.9318 1187.47 -187.87 1027.39C-311.448 948.821 -391.704 930.038 -443 930.812V1334H1056V937.002C951.52 984.839 906.819 1082.14 783.422 1179.47Z" fill="url(#paint1_linear_339_4252)"/>
<path d="M-443 470.582C-438.953 471.996 -434.845 473.463 -430.708 475.144C-241.834 551.182 -30.5052 571.192 108.902 359.086C248.309 146.98 648.512 134.974 765.434 343.078C848.898 491.606 893.418 615.668 1056 664.332V0H-443V470.582Z" fill="url(#paint2_linear_339_4252)"/>
<path d="M788.643 1082.73C739.809 982.422 637.54 1018.44 608.532 970.847C579.525 923.257 631.427 870.536 533.736 807.514C436.046 744.491 420.798 592.751 420.798 592.751C419.241 591.439 402.895 591.902 392.569 592.346C382.244 591.902 365.897 591.439 364.341 592.751C364.341 592.751 349.07 744.51 251.402 807.514C153.712 870.536 205.613 923.257 176.606 970.847C147.599 1018.44 45.3525 982.422 -3.50417 1082.73C-29.0314 1135.18 -73.7671 1156.69 -115 1164.72H900.139C858.906 1156.69 814.17 1135.18 788.643 1082.73Z" fill="#EBF6FF"/>
<path d="M426.981 571.975L393.006 573.21L359.031 571.975C359.031 571.975 345.088 581.215 345.386 600.217H440.603C440.901 581.215 426.958 571.975 426.958 571.975H426.981Z" fill="#275AFF"/>
<path d="M444.681 483.971C444.681 483.971 445.138 502.973 465.308 509.975C485.456 516.978 513.593 528.976 514.051 574.965H434.836L444.681 483.971Z" fill="#275AFF"/>
<path d="M340.464 483.971C340.464 483.971 340.006 502.973 319.836 509.975C299.689 516.978 271.552 528.976 271.094 574.965H350.308L340.464 483.971Z" fill="#275AFF"/>
<path d="M447.407 576.972C447.407 576.972 466.043 393.904 392.575 332C319.129 393.884 337.743 576.972 337.743 576.972H447.384H447.407Z" fill="#EBF6FF"/>
<path d="M404.476 449.044C420.092 443.645 427.557 428.601 421.149 415.443C414.741 402.284 396.887 395.994 381.27 401.394C365.654 406.793 358.189 421.837 364.597 434.995C371.005 448.153 388.859 454.443 404.476 449.044Z" fill="#275AFF"/>
<path d="M392.869 496.24C401.556 496.24 408.598 490.307 408.598 482.988C408.598 475.668 401.556 469.735 392.869 469.735C384.183 469.735 377.141 475.668 377.141 482.988C377.141 490.307 384.183 496.24 392.869 496.24Z" fill="#275AFF"/>
</g>
<defs>
<linearGradient id="paint0_linear_339_4252" x1="547.599" y1="1.49407" x2="117.858" y2="1499.3" gradientUnits="userSpaceOnUse">
<stop stop-color="#0E216D"/>
<stop offset="0.13" stop-color="#0F2373"/>
<stop offset="0.31" stop-color="#122B86"/>
<stop offset="0.53" stop-color="#1837A5"/>
<stop offset="0.78" stop-color="#1F47D0"/>
<stop offset="1" stop-color="#285AFF"/>
</linearGradient>
<linearGradient id="paint1_linear_339_4252" x1="306.5" y1="719.266" x2="306.5" y2="1596.1" gradientUnits="userSpaceOnUse">
<stop stop-color="#090F27"/>
<stop offset="0.12" stop-color="#0B1538"/>
<stop offset="0.35" stop-color="#112465"/>
<stop offset="0.67" stop-color="#1C3DAE"/>
<stop offset="1" stop-color="#285AFF"/>
</linearGradient>
<linearGradient id="paint2_linear_339_4252" x1="306.5" y1="-425.253" x2="306.5" y2="1028.33" gradientUnits="userSpaceOnUse">
<stop stop-color="#090F27"/>
<stop offset="0.12" stop-color="#0B1538"/>
<stop offset="0.35" stop-color="#112465"/>
<stop offset="0.67" stop-color="#1C3DAE"/>
<stop offset="1" stop-color="#285AFF"/>
</linearGradient>
<clipPath id="clip0_339_4252">
<rect width="1499" height="1334" fill="white" transform="translate(-296)"/>
</clipPath>
</defs>
</svg>
