<svg width="799" height="1140" viewBox="0 0 799 1140" fill="none" xmlns="http://www.w3.org/2000/svg">
<mask id="mask0_358_5483" style="mask-type:alpha" maskUnits="userSpaceOnUse" x="0" y="0" width="799" height="1140">
<rect width="799" height="1140" fill="#D9D9D9"/>
</mask>
<g mask="url(#mask0_358_5483)">
<g clip-path="url(#clip0_358_5483)">
<path d="M1056 0H-443V1334H1056V0Z" fill="url(#paint0_linear_358_5483)"/>
<path d="M783.422 1179.47C585.554 1335.55 63.9318 1187.47 -187.87 1027.39C-311.448 948.821 -391.704 930.038 -443 930.812V1334H1056V937.001C951.52 984.839 906.819 1082.14 783.422 1179.47Z" fill="url(#paint1_linear_358_5483)"/>
<path d="M-443 470.582C-438.953 471.996 -434.845 473.463 -430.708 475.144C-241.834 551.182 -30.5052 571.192 108.902 359.086C248.309 146.98 648.512 134.974 765.434 343.078C848.898 491.606 893.418 615.668 1056 664.332V0H-443V470.582Z" fill="url(#paint2_linear_358_5483)"/>
</g>
<path d="M289.212 627.651H196.838V995.342H289.212V627.651Z" fill="#EBF6FF"/>
<path d="M274.127 601.286H211.938V755.797H274.127V601.286Z" fill="#EBF6FF"/>
<path d="M260.275 584.566H225.779V670.27H260.275V584.566Z" fill="#EBF6FF"/>
<path d="M254.785 628.61H231.271V570.205H239.755H248.159H254.785V628.61Z" fill="#EBF6FF"/>
<path d="M241.48 603.178H238.928V544.764H239.852H240.758H241.48V603.178Z" fill="#EBF6FF"/>
<path d="M247.128 582.982H244.576V524.577H245.491H246.407H247.128V582.982Z" fill="#EBF6FF"/>
<path d="M291.675 626.709H194.373V630.625H291.675V626.709Z" fill="#EBF6FF"/>
<path d="M276.392 599.403H209.67V603.17H276.392V599.403Z" fill="#EBF6FF"/>
<path d="M261.72 582.982H223.264V585.878H261.72V582.982Z" fill="#EBF6FF"/>
<path opacity="0.29" d="M220.544 607.561H217.648V623.753H220.544V607.561Z" fill="#EBF6FF"/>
<path opacity="0.29" d="M228.544 607.561H225.648V623.753H228.544V607.561Z" fill="#EBF6FF"/>
<path opacity="0.29" d="M236.542 607.561H233.646V623.753H236.542V607.561Z" fill="#EBF6FF"/>
<path opacity="0.29" d="M244.544 607.561H241.648V623.753H244.544V607.561Z" fill="#EBF6FF"/>
<path opacity="0.29" d="M252.542 607.561H249.646V623.753H252.542V607.561Z" fill="#EBF6FF"/>
<path opacity="0.29" d="M260.54 607.561H257.645V623.753H260.54V607.561Z" fill="#EBF6FF"/>
<path opacity="0.29" d="M268.54 607.561H265.645V623.753H268.54V607.561Z" fill="#EBF6FF"/>
<path d="M211.936 642.312H204.949V661.522H211.936V642.312Z" fill="#EBF6FF"/>
<path opacity="0.29" d="M225.77 642.312H218.783V661.522H225.77V642.312Z" fill="#EBF6FF"/>
<path d="M239.604 642.312H232.617V661.522H239.604V642.312Z" fill="#EBF6FF"/>
<path d="M253.44 642.312H246.453V661.522H253.44V642.312Z" fill="#EBF6FF"/>
<path d="M267.274 642.312H260.287V661.522H267.274V642.312Z" fill="#EBF6FF"/>
<path d="M281.104 642.312H274.117V661.522H281.104V642.312Z" fill="#EBF6FF"/>
<path d="M211.936 672.25H204.949V691.46H211.936V672.25Z" fill="#EBF6FF"/>
<path d="M225.77 672.25H218.783V691.46H225.77V672.25Z" fill="#EBF6FF"/>
<path d="M239.604 672.25H232.617V691.46H239.604V672.25Z" fill="#EBF6FF"/>
<path opacity="0.29" d="M253.44 672.25H246.453V691.46H253.44V672.25Z" fill="#EBF6FF"/>
<path d="M267.274 672.25H260.287V691.46H267.274V672.25Z" fill="#EBF6FF"/>
<path d="M281.104 672.25H274.117V691.46H281.104V672.25Z" fill="#EBF6FF"/>
<path d="M211.936 702.196H204.949V721.406H211.936V702.196Z" fill="#EBF6FF"/>
<path d="M225.77 702.196H218.783V721.406H225.77V702.196Z" fill="#EBF6FF"/>
<path d="M239.604 702.196H232.617V721.406H239.604V702.196Z" fill="#EBF6FF"/>
<path d="M253.44 702.196H246.453V721.406H253.44V702.196Z" fill="#EBF6FF"/>
<path opacity="0.29" d="M267.274 702.196H260.287V721.406H267.274V702.196Z" fill="#EBF6FF"/>
<path opacity="0.29" d="M281.104 702.196H274.117V721.406H281.104V702.196Z" fill="#EBF6FF"/>
<path opacity="0.29" d="M211.936 732.134H204.949V751.344H211.936V732.134Z" fill="#EBF6FF"/>
<path d="M225.77 732.134H218.783V751.344H225.77V732.134Z" fill="#EBF6FF"/>
<path d="M239.604 732.134H232.617V751.344H239.604V732.134Z" fill="#EBF6FF"/>
<path d="M253.44 732.134H246.453V751.344H253.44V732.134Z" fill="#EBF6FF"/>
<path d="M267.274 732.134H260.287V751.344H267.274V732.134Z" fill="#EBF6FF"/>
<path d="M281.104 732.134H274.117V751.344H281.104V732.134Z" fill="#EBF6FF"/>
<path d="M211.936 762.08H204.949V781.29H211.936V762.08Z" fill="#EBF6FF"/>
<path opacity="0.29" d="M225.77 762.08H218.783V781.29H225.77V762.08Z" fill="#EBF6FF"/>
<path d="M239.604 762.08H232.617V781.29H239.604V762.08Z" fill="#EBF6FF"/>
<path opacity="0.29" d="M253.44 762.08H246.453V781.29H253.44V762.08Z" fill="#EBF6FF"/>
<path d="M267.274 762.08H260.287V781.29H267.274V762.08Z" fill="#EBF6FF"/>
<path d="M281.104 762.08H274.117V781.29H281.104V762.08Z" fill="#EBF6FF"/>
<path d="M211.936 792.018H204.949V811.228H211.936V792.018Z" fill="#EBF6FF"/>
<path d="M225.77 792.018H218.783V811.228H225.77V792.018Z" fill="#EBF6FF"/>
<path d="M239.604 792.018H232.617V811.228H239.604V792.018Z" fill="#EBF6FF"/>
<path d="M253.44 792.018H246.453V811.228H253.44V792.018Z" fill="#EBF6FF"/>
<path d="M267.274 792.018H260.287V811.228H267.274V792.018Z" fill="#EBF6FF"/>
<path opacity="0.29" d="M281.104 792.018H274.117V811.228H281.104V792.018Z" fill="#EBF6FF"/>
<path d="M211.936 821.955H204.949V841.165H211.936V821.955Z" fill="#EBF6FF"/>
<path opacity="0.29" d="M225.77 821.955H218.783V841.165H225.77V821.955Z" fill="#EBF6FF"/>
<path opacity="0.29" d="M239.604 821.955H232.617V841.165H239.604V821.955Z" fill="#EBF6FF"/>
<path d="M253.44 821.955H246.453V841.165H253.44V821.955Z" fill="#EBF6FF"/>
<path d="M267.274 821.955H260.287V841.165H267.274V821.955Z" fill="#EBF6FF"/>
<path d="M281.104 821.955H274.117V841.165H281.104V821.955Z" fill="#EBF6FF"/>
<path d="M211.936 851.902H204.949V871.112H211.936V851.902Z" fill="#EBF6FF"/>
<path d="M225.77 851.902H218.783V871.112H225.77V851.902Z" fill="#EBF6FF"/>
<path d="M239.604 851.902H232.617V871.112H239.604V851.902Z" fill="#EBF6FF"/>
<path d="M253.44 851.902H246.453V871.112H253.44V851.902Z" fill="#EBF6FF"/>
<path opacity="0.29" d="M267.274 851.902H260.287V871.112H267.274V851.902Z" fill="#EBF6FF"/>
<path d="M281.104 851.902H274.117V871.112H281.104V851.902Z" fill="#EBF6FF"/>
<path d="M211.936 881.839H204.949V901.05H211.936V881.839Z" fill="#EBF6FF"/>
<path opacity="0.29" d="M225.77 881.839H218.783V901.05H225.77V881.839Z" fill="#EBF6FF"/>
<path d="M239.604 881.839H232.617V901.05H239.604V881.839Z" fill="#EBF6FF"/>
<path d="M253.44 881.839H246.453V901.05H253.44V881.839Z" fill="#EBF6FF"/>
<path d="M267.274 881.839H260.287V901.05H267.274V881.839Z" fill="#EBF6FF"/>
<path d="M281.104 881.839H274.117V901.05H281.104V881.839Z" fill="#EBF6FF"/>
<path d="M211.936 911.786H204.949V930.996H211.936V911.786Z" fill="#EBF6FF"/>
<path d="M225.77 911.786H218.783V930.996H225.77V911.786Z" fill="#EBF6FF"/>
<path d="M239.604 911.786H232.617V930.996H239.604V911.786Z" fill="#EBF6FF"/>
<path opacity="0.29" d="M253.44 911.786H246.453V930.996H253.44V911.786Z" fill="#EBF6FF"/>
<path d="M267.274 911.786H260.287V930.996H267.274V911.786Z" fill="#EBF6FF"/>
<path opacity="0.29" d="M281.104 911.786H274.117V930.996H281.104V911.786Z" fill="#EBF6FF"/>
<path opacity="0.29" d="M211.936 941.723H204.949V960.934H211.936V941.723Z" fill="#EBF6FF"/>
<path d="M225.77 941.723H218.783V960.934H225.77V941.723Z" fill="#EBF6FF"/>
<path opacity="0.29" d="M239.604 941.723H232.617V960.934H239.604V941.723Z" fill="#EBF6FF"/>
<path d="M253.44 941.723H246.453V960.934H253.44V941.723Z" fill="#EBF6FF"/>
<path d="M267.274 941.723H260.287V960.934H267.274V941.723Z" fill="#EBF6FF"/>
<path d="M281.104 941.723H274.117V960.934H281.104V941.723Z" fill="#EBF6FF"/>
<path d="M77.0478 641.635H-71.4434V951.377H77.0478V641.635Z" fill="#EBF6FF"/>
<path d="M81.2624 636.311H-75.668V645.067H81.2624V636.311Z" fill="#EBF6FF"/>
<path d="M72.0589 625.099H-66.4531V666.715H72.0589V625.099Z" fill="#EBF6FF"/>
<path d="M597.569 714.877V562.628H572.076V521.84H562.968V462.026H512.79V418.07H508.328V462.026H498.499V407H494.028V462.026H462.313V562.628H445.928V714.877H431.883V992.2H607.443V714.877H597.569Z" fill="#EBF6FF"/>
<path d="M1663.16 969.311H-278.977V1015.5H1663.16V969.311Z" fill="#EBF6FF"/>
<path d="M864.225 1004.19H778.223L811.733 831.978H864.225V1004.19Z" fill="#94C9FF"/>
<path d="M1690.49 1010.9H-348.662V1144.42H1690.49V1010.9Z" fill="#275AFF"/>
<path d="M793.745 685.511V609.198H766.131V580.149H751.355V555.738H746.172V513.902H744.835V555.738H739.651V580.149H724.876V609.198H697.473V685.511H691.779V824.058H649.293V981.992H691.779H734.266H799.227V685.511H793.745Z" fill="#EBF6FF"/>
<path d="M342.958 829.461H224.457V1017.73H342.958V829.461Z" fill="#275AFF"/>
<path d="M206.609 925.918H2.80078V1017.73H206.609V925.918Z" fill="#275AFF"/>
<path d="M156.782 720.808H112.043V946.264H156.782V720.808Z" fill="#EBF6FF"/>
<path d="M124.241 660.669H121.918V783.27H124.241V660.669Z" fill="#EBF6FF"/>
<path d="M131.802 669.961H129.479V792.563H131.802V669.961Z" fill="#EBF6FF"/>
<path d="M142.845 706.86H115.494V737.079H142.845V706.86Z" fill="#EBF6FF"/>
<path d="M276.483 863.166H198.621V1017.73H276.483V863.166Z" fill="#275AFF"/>
<path d="M508.327 699.6H362.168V1017.73H508.327V699.6Z" fill="#275AFF"/>
<path d="M493.965 688.67H376.529V741.655H493.965V688.67Z" fill="#275AFF"/>
<path d="M519.663 706.253H350.844V709.975H519.663V706.253Z" fill="#275AFF"/>
<path d="M404.556 857.067H335.688V1017.73H404.556V857.067Z" fill="#275AFF"/>
<path d="M25.4613 805.64H-132.006V1017.73H25.4613V805.64Z" fill="#275AFF"/>
<path d="M29.5286 797.509H-141.191V805.64H29.5286V797.509Z" fill="#275AFF"/>
<path d="M2.80007 775.43H-9.98633V801.575H2.80007V775.43Z" fill="#275AFF"/>
<path d="M1316.79 946.264H493.973V1017.74H1316.79V946.264Z" fill="#275AFF"/>
<path d="M1649.11 1042.54L1634.72 946.264H1605.27V866.36H1608.92V859.126H1594.62V828.01H1592.88V859.126H1583V833.633H1581.26V859.126H1521.71V866.36H1525.78V1028.47H1457.79V955.856H1419.07V777.41H1422.62V768.662H1414.88V757.451H1405.99V753.236V740.423V729.309H1395.24V709.438H1393.96H1392.66V729.309H1386.87L1383.37 740.423H1359.95V757.451H1298.62V768.662H1290.88V777.41H1294.43V893.517H1243.12V1007.59L1186.18 982.37V871.64H1195.37V863.509H1179.2V841.43H1110V863.509H1087.39V841.43H1075.78V863.509H1064.15V841.43H1051.37V863.509H1024.64V871.64H1028.71V1025.11H1002.75V1023.5H998.055V979.766H1002.75V976.263H998.055V932.527H1002.75V929.016H998.055V885.28H1002.75V881.778H998.055V838.042H1002.75V834.53H998.055V790.794H1002.75V787.292H998.055V742.025H1006.11V738.505H1010.2V728.913H933.762V718.247H936.244V715.158H894.629V718.247H897.11V728.913H878.173V738.505H882.265V742.025H890.317V787.292H885.618V790.794H890.317V834.53H885.618V838.042H890.317V881.778H885.618V885.28H890.317V929.016H885.618V932.527H890.317V976.263H885.618V979.766H890.317V1023.5H885.618V1027.01H890.317V1062.75H864.225V924.651H759.241V1025.11H742.195V712.149H729.585V720.201L706.318 725.894V720.658H693.707V728.983L670.44 734.668V728.666H657.83V737.757L634.554 743.45V738.496H621.943V746.53L598.676 752.224V747.956H586.066V1055.3H568.325V891.449H502.615V992.2H435.251V906.286H426.953V878.064H431.881V875.23H410.074V866.36H407.751V875.23H400.782V829.69H399.039V875.23H389.958V878.064H395.299V906.286H350.842V971.828H307.563L284.956 1055.3H239.601V782.76H179.55V773.001H182.955V769.569H137.477V773.001H141.05V782.76V798.468V985.116H112.74V914.593H122.798V908.213H51.5536V865.603H37.9664V856.847H7.62402V865.603H-17.06V1017.73H-98.0464V904.904H-166.238V994.022H-225.418V1051.04H-268.08V979.361H-324.198V1040.47H-375V1144.42H-324.198H-307.029H-278.974H-268.08H-225.418H-166.238H-146.35H-135.702H-98.0464H-17.06H7.62402H37.9664H51.5536H104.706H112.74H141.05H188.534H211.934H239.601H350.842H376.529H419.895H435.251H503.768H522.178H586.066H592.375H598.676H621.943H634.554H657.83H668.363H670.44H693.707H706.318H726.32H729.585H735.895H742.195H759.241H846.018H858.408H864.225H890.317H936.244H978.29H998.055H1028.71H1104.83H1185.34H1186.18H1243.12H1274.95H1294.43H1306.73H1402.01H1419.07H1439.47H1457.79H1525.78H1576.33H1586.68H1605.27H1718.39V1042.54H1649.11Z" fill="#275AFF"/>
</g>
<defs>
<linearGradient id="paint0_linear_358_5483" x1="547.599" y1="1.49407" x2="117.858" y2="1499.3" gradientUnits="userSpaceOnUse">
<stop stop-color="#0E216D"/>
<stop offset="0.13" stop-color="#0F2373"/>
<stop offset="0.31" stop-color="#122B86"/>
<stop offset="0.53" stop-color="#1837A5"/>
<stop offset="0.78" stop-color="#1F47D0"/>
<stop offset="1" stop-color="#285AFF"/>
</linearGradient>
<linearGradient id="paint1_linear_358_5483" x1="306.5" y1="719.266" x2="306.5" y2="1596.1" gradientUnits="userSpaceOnUse">
<stop stop-color="#090F27"/>
<stop offset="0.12" stop-color="#0B1538"/>
<stop offset="0.35" stop-color="#112465"/>
<stop offset="0.67" stop-color="#1C3DAE"/>
<stop offset="1" stop-color="#285AFF"/>
</linearGradient>
<linearGradient id="paint2_linear_358_5483" x1="306.5" y1="-425.253" x2="306.5" y2="1028.33" gradientUnits="userSpaceOnUse">
<stop stop-color="#090F27"/>
<stop offset="0.12" stop-color="#0B1538"/>
<stop offset="0.35" stop-color="#112465"/>
<stop offset="0.67" stop-color="#1C3DAE"/>
<stop offset="1" stop-color="#285AFF"/>
</linearGradient>
<clipPath id="clip0_358_5483">
<rect width="1499" height="1334" fill="white" transform="translate(-296)"/>
</clipPath>
</defs>
</svg>
