<svg width="18" height="22" viewBox="0 0 18 22" fill="none" xmlns="http://www.w3.org/2000/svg">
<path d="M9.08801 0.898926C6.89941 0.901408 4.80116 1.77187 3.25358 3.31934C1.70601 4.86681 0.835491 6.96492 0.833008 9.15338C0.833008 16.2166 8.33755 21.551 8.65743 21.7742C8.78362 21.8626 8.93395 21.91 9.08801 21.91C9.24207 21.91 9.3924 21.8626 9.51858 21.7742C9.83846 21.551 17.343 16.2166 17.343 9.15338C17.3405 6.96492 16.47 4.86681 14.9224 3.31934C13.3749 1.77187 11.2766 0.901408 9.08801 0.898926ZM9.08801 6.15176C9.68171 6.15176 10.2621 6.3278 10.7557 6.65762C11.2494 6.98744 11.6341 7.45623 11.8613 8.00471C12.0885 8.55318 12.148 9.15671 12.0321 9.73896C11.9163 10.3212 11.6304 10.8561 11.2106 11.2758C10.7908 11.6956 10.2559 11.9815 9.67363 12.0973C9.09134 12.2131 8.48777 12.1537 7.93926 11.9265C7.39075 11.6993 6.92193 11.3146 6.59209 10.821C6.26224 10.3274 6.08619 9.74704 6.08619 9.15338C6.08619 8.3573 6.40245 7.59383 6.9654 7.03091C7.52835 6.468 8.29188 6.15176 9.08801 6.15176Z" fill="#F5781A"/>
</svg>
