<svg width="799" height="1140" viewBox="0 0 799 1140" fill="none" xmlns="http://www.w3.org/2000/svg">
<g clip-path="url(#clip0_427_1207)">
<path d="M1056 0H-443V1334H1056V0Z" fill="url(#paint0_linear_427_1207)"/>
<path d="M783.422 1179.47C585.554 1335.55 63.9318 1187.47 -187.87 1027.39C-311.448 948.821 -391.704 930.038 -443 930.812V1334H1056V937.001C951.52 984.839 906.819 1082.14 783.422 1179.47Z" fill="url(#paint1_linear_427_1207)"/>
<path d="M-443 470.582C-438.953 471.996 -434.845 473.463 -430.708 475.144C-241.834 551.182 -30.5052 571.192 108.902 359.086C248.309 146.98 648.512 134.974 765.434 343.078C848.898 491.606 893.418 615.668 1056 664.332V0H-443V470.582Z" fill="url(#paint2_linear_427_1207)"/>
<path d="M588.07 694.968L596.192 696.457L598.005 705.021L599.818 696.457L607.94 694.954L599.848 692.978L598.005 684.901L596.148 692.978L588.07 694.968Z" fill="#C7C7C7"/>
<path d="M253.045 648.758L261.167 650.247L262.98 658.811L264.793 650.247L272.914 648.744L264.837 646.768L262.98 638.691L261.137 646.768L253.045 648.758Z" fill="#C7C7C7"/>
<path d="M505.127 557.252L513.249 558.756L515.062 567.305L516.875 558.756L524.996 557.252L516.919 555.277L515.062 547.185L513.219 555.277L505.127 557.252Z" fill="#C7C7C7"/>
<path d="M665.248 644.572L669.788 645.412L670.805 650.203L671.822 645.412L676.347 644.572L671.837 643.467L670.805 638.956L669.773 643.467L665.248 644.572Z" fill="#C7C7C7"/>
<path d="M320.863 826.611L325.388 827.451L326.406 832.242L327.423 827.451L331.962 826.611L327.437 825.506L326.406 820.995L325.374 825.506L320.863 826.611Z" fill="#C7C7C7"/>
<path d="M654.148 429.236L658.688 430.076L659.705 434.852L660.708 430.076L665.248 429.221L660.737 428.13L659.705 423.605L658.659 428.13L654.148 429.236Z" fill="#C7C7C7"/>
<path d="M118.807 532.136L123.347 532.976L124.364 537.752L125.381 532.976L129.906 532.136L125.395 531.03L124.364 526.505L123.332 531.03L118.807 532.136Z" fill="#C7C7C7"/>
<path d="M143.158 775.626L147.698 776.466L148.715 781.256L149.717 776.466L154.257 775.626L149.747 774.52L148.715 769.995L147.669 774.52L143.158 775.626Z" fill="#C7C7C7"/>
<path d="M636.639 550.413L641.179 551.253L642.181 556.029L643.198 551.253L647.738 550.413L643.227 549.308L642.181 544.782L641.149 549.308L636.639 550.413Z" fill="#C7C7C7"/>
<path d="M445.209 705.021L449.749 705.861L450.766 710.652L451.783 705.861L456.308 705.021L451.798 703.915L450.766 699.405L449.734 703.915L445.209 705.021Z" fill="#C7C7C7"/>
<path d="M280.062 320.867L284.602 321.707L285.619 326.483L286.637 321.707L291.162 320.867L286.651 319.762L285.619 315.236L284.588 319.762L280.062 320.867Z" fill="#C7C7C7"/>
<path d="M457.725 687.642L462.265 688.483L463.282 693.273L464.299 688.483L468.839 687.642L464.313 686.537L463.282 682.012L462.25 686.537L457.725 687.642Z" fill="#C7C7C7"/>
<path d="M310.117 836.959C311.812 836.959 311.812 839.582 310.117 839.582C308.422 839.582 308.422 836.959 310.117 836.959Z" fill="#C7C7C7"/>
<path d="M544.793 590.226C546.488 590.226 546.488 592.85 544.793 592.85C543.098 592.85 543.098 590.226 544.793 590.226Z" fill="#C7C7C7"/>
<path d="M432.549 701.085C434.244 701.085 434.244 703.709 432.549 703.709C430.854 703.709 430.854 701.085 432.549 701.085Z" fill="#C7C7C7"/>
<path d="M237.435 827.098C239.13 827.098 239.13 829.721 237.435 829.721C235.74 829.721 235.74 827.098 237.435 827.098Z" fill="#C7C7C7"/>
<path d="M676.597 844.52C678.293 844.52 678.293 847.144 676.597 847.144C674.902 847.144 674.902 844.52 676.597 844.52Z" fill="#C7C7C7"/>
<path d="M607.394 607.472C609.089 607.472 609.089 610.11 607.394 610.11C605.699 610.11 605.699 607.472 607.394 607.472Z" fill="#C7C7C7"/>
<path d="M343.075 813.301C344.269 813.301 344.269 815.158 343.075 815.158C341.881 815.158 341.881 813.301 343.075 813.301Z" fill="#C7C7C7"/>
<path d="M157.233 330.08C158.427 330.08 158.427 331.937 157.233 331.937C156.039 331.937 156.039 330.08 157.233 330.08Z" fill="#C7C7C7"/>
<path d="M516.153 629.198C517.347 629.198 517.347 631.056 516.153 631.056C514.959 631.056 514.959 629.198 516.153 629.198Z" fill="#C7C7C7"/>
<path d="M471.196 709.723C472.39 709.723 472.39 711.58 471.196 711.58C470.002 711.58 470.002 709.723 471.196 709.723Z" fill="#C7C7C7"/>
<path d="M397.569 694.025C398.763 694.025 398.763 695.882 397.569 695.882C396.375 695.882 396.375 694.025 397.569 694.025Z" fill="#C7C7C7"/>
<path d="M484.609 612.292C487.852 612.292 487.867 617.333 484.609 617.333C481.352 617.333 481.352 612.292 484.609 612.292Z" fill="#C7C7C7"/>
<path d="M355.531 357.57L363.653 359.073L365.466 367.622L367.279 359.073L375.401 357.57L367.308 355.594L365.466 347.502L363.609 355.594L355.531 357.57Z" fill="#C7C7C7"/>
<path d="M386.471 283.472L391.011 284.312L392.028 289.088L393.045 284.312L397.57 283.472L393.059 282.366L392.028 277.841L390.996 282.366L386.471 283.472Z" fill="#C7C7C7"/>
<path d="M111.363 406.271C113.058 406.271 113.058 408.894 111.363 408.894C109.668 408.894 109.668 406.271 111.363 406.271Z" fill="#C7C7C7"/>
<path d="M132.029 755.152C133.724 755.152 133.724 757.776 132.029 757.776C130.334 757.776 130.334 755.152 132.029 755.152Z" fill="#C7C7C7"/>
<path d="M96.4022 820.406C98.0973 820.406 98.0973 823.029 96.4022 823.029C94.7071 823.029 94.7071 820.406 96.4022 820.406Z" fill="#C7C7C7"/>
<path d="M163.779 516.541C165.474 516.541 165.474 519.164 163.779 519.164C162.084 519.164 162.084 516.541 163.779 516.541Z" fill="#C7C7C7"/>
<path d="M96.4022 289.471C98.0973 289.471 98.0973 292.095 96.4022 292.095C94.7071 292.095 94.7071 289.471 96.4022 289.471Z" fill="#C7C7C7"/>
<path d="M215.825 692.433C217.019 692.433 217.019 694.29 215.825 694.29C214.631 694.29 214.631 692.433 215.825 692.433Z" fill="#C7C7C7"/>
<path d="M412.134 811.724C413.328 811.724 413.328 813.581 412.134 813.581C410.94 813.581 410.94 811.724 412.134 811.724Z" fill="#C7C7C7"/>
<path d="M550.335 385.959C551.529 385.959 551.529 387.816 550.335 387.816C549.141 387.816 549.141 385.959 550.335 385.959Z" fill="#C7C7C7"/>
<path d="M382.226 328.974C383.419 328.974 383.419 330.831 382.226 330.831C381.032 330.831 381.032 328.974 382.226 328.974Z" fill="#C7C7C7"/>
<path d="M326.406 659.371C329.649 659.371 329.664 664.412 326.406 664.412C323.149 664.412 323.149 659.371 326.406 659.371Z" fill="#C7C7C7"/>
<path d="M658.586 468.827C661.829 468.827 661.843 473.868 658.586 473.868C655.328 473.868 655.328 468.827 658.586 468.827Z" fill="#C7C7C7"/>
<path d="M142.51 689.913C145.752 689.913 145.767 694.954 142.51 694.954C139.252 694.954 139.252 689.913 142.51 689.913Z" fill="#C7C7C7"/>
<path d="M354.352 592.864L358.891 593.705L359.909 598.48L360.926 593.705L365.466 592.864L360.94 591.759L359.909 587.234L358.877 591.759L354.352 592.864Z" fill="#C7C7C7"/>
<path d="M450.766 821.732L455.306 822.572L456.308 827.348L457.325 822.572L461.865 821.717L457.354 820.627L456.308 816.102L455.276 820.627L450.766 821.732Z" fill="#C7C7C7"/>
<path d="M470.871 762.787C472.566 762.787 472.566 765.411 470.871 765.411C469.176 765.411 469.176 762.787 470.871 762.787Z" fill="#C7C7C7"/>
<path d="M522.139 727.794C523.834 727.794 523.834 730.418 522.139 730.418C520.443 730.418 520.443 727.794 522.139 727.794Z" fill="#C7C7C7"/>
<path d="M359.91 788.214L364.45 789.054L365.467 793.844L366.484 789.054L371.024 788.214L366.499 787.108L365.467 782.583L364.435 787.108L359.91 788.214Z" fill="#C7C7C7"/>
<path d="M546.724 364.512C548.42 364.512 548.42 367.136 546.724 367.136C545.029 367.136 545.029 364.512 546.724 364.512Z" fill="#C7C7C7"/>
<path d="M578.37 731.951C579.564 731.951 579.564 733.808 578.37 733.808C577.176 733.808 577.176 731.951 578.37 731.951Z" fill="#C7C7C7"/>
<path d="M182.381 573.732L186.921 574.572L187.923 579.348L188.94 574.572L193.48 573.732L188.97 572.626L187.923 568.101L186.891 572.626L182.381 573.732Z" fill="#C7C7C7"/>
<path d="M129.906 646.12C131.601 646.12 131.601 648.744 129.906 648.744C128.211 648.744 128.211 646.12 129.906 646.12Z" fill="#C7C7C7"/>
<path d="M311.385 549.234C313.08 549.234 313.08 551.858 311.385 551.858C309.69 551.858 309.69 549.234 311.385 549.234Z" fill="#C7C7C7"/>
<path d="M157.233 416.323C158.427 416.323 158.427 418.18 157.233 418.18C156.039 418.18 156.039 416.323 157.233 416.323Z" fill="#C7C7C7"/>
<path d="M145.31 407.774C148.553 407.774 148.568 412.815 145.31 412.815C142.053 412.815 142.053 407.774 145.31 407.774Z" fill="#C7C7C7"/>
<path d="M661.017 296.428C664.26 296.428 664.275 301.469 661.017 301.469C657.76 301.469 657.76 296.428 661.017 296.428Z" fill="#C7C7C7"/>
<path d="M365.801 544.156C380.616 539.098 388.526 522.988 383.468 508.173C378.41 493.358 362.3 485.448 347.485 490.506C332.67 495.564 324.76 511.674 329.818 526.489C334.876 541.304 350.986 549.213 365.801 544.156Z" fill="#EBEBEB"/>
<path d="M383.787 525.547C382.402 524.323 379.586 522.068 374.943 520.034C369.327 517.558 354.042 514.846 346.967 511.279C337.017 506.252 335.779 500.857 335.838 498.057C338.344 495.345 341.321 493.193 344.593 491.66C345.301 494.534 347.969 503.466 364.492 509.303C373.012 512.31 381.193 510.306 383.949 509.613C385.394 514.713 385.423 520.226 383.802 525.547H383.787Z" fill="#DBDBDB"/>
<path d="M372.216 541.009C364.404 546.124 354.218 547.274 345.065 543.176C341.851 541.731 339.036 539.771 336.678 537.427C337.783 536.794 340.053 535.821 341.763 535.408C349.384 533.551 357.771 537.206 360.837 538.916C365.745 541.672 369.961 541.437 372.216 541.009Z" fill="#DBDBDB"/>
<path d="M382.107 529.807C381.989 530.043 381.871 530.264 381.753 530.5C381.65 530.706 381.532 530.912 381.414 531.119C381.164 531.576 380.898 532.033 380.604 532.475C380.353 532.873 380.088 533.271 379.822 533.654C379.719 533.801 379.616 533.934 379.513 534.081C379.395 534.244 379.277 534.406 379.159 534.553C379.041 534.715 378.923 534.863 378.791 535.025C378.643 535.202 378.496 535.393 378.348 535.57C378.201 535.747 378.054 535.924 377.892 536.101C377.759 536.248 377.626 536.396 377.494 536.543C377.199 536.867 376.904 537.177 376.594 537.486C374.826 538.032 372.467 537.796 369.003 536.425C363.859 534.406 358.302 529.542 348.353 525.974C338.948 522.599 331.151 524.456 329.294 524.751C327.805 519.253 327.952 513.298 330.016 507.623C331.829 507.549 337.666 508.39 350.077 518.649C354.794 522.555 358.965 525.296 362.591 527.213C373.204 532.77 379.351 531.119 381.916 529.836C381.916 529.836 382.033 529.836 382.092 529.836L382.107 529.807Z" fill="#DBDBDB"/>
<path d="M355.161 540.464C355.662 539.314 357.431 538.96 359.112 539.697C360.792 540.434 361.75 541.952 361.234 543.117C360.733 544.267 358.964 544.62 357.284 543.883C355.603 543.146 354.645 541.628 355.161 540.464Z" fill="#C7C7C7"/>
<path d="M363.18 538.444C363.46 537.796 364.507 537.619 365.524 538.061C366.526 538.503 367.116 539.388 366.836 540.036C366.556 540.685 365.509 540.862 364.492 540.419C363.475 539.977 362.9 539.093 363.18 538.444Z" fill="#C7C7C7"/>
<path d="M341.203 503.628C341.631 502.641 343.178 502.361 344.638 503.009C346.112 503.643 346.952 504.97 346.524 505.957C346.097 506.945 344.549 507.225 343.09 506.576C341.616 505.942 340.776 504.616 341.203 503.628Z" fill="#C7C7C7"/>
<path d="M346.421 502.656C346.657 502.125 347.394 501.948 348.087 502.258C348.78 502.552 349.148 503.23 348.927 503.761C348.691 504.292 347.954 504.469 347.262 504.159C346.569 503.864 346.2 503.186 346.421 502.656Z" fill="#C7C7C7"/>
<path d="M347.261 505.279C347.394 504.97 347.865 504.867 348.308 505.058C348.75 505.25 349 505.662 348.853 505.972C348.72 506.282 348.249 506.385 347.806 506.193C347.364 506.001 347.114 505.589 347.261 505.279Z" fill="#C7C7C7"/>
<path d="M364.95 505.353C365.333 504.469 366.6 504.174 367.78 504.69C368.959 505.206 369.593 506.326 369.209 507.21C368.826 508.095 367.559 508.389 366.379 507.873C365.2 507.358 364.566 506.237 364.95 505.353Z" fill="#C7C7C7"/>
<path d="M364.271 509.215C364.492 508.714 365.126 508.507 365.701 508.743C366.261 508.994 366.556 509.598 366.335 510.099C366.114 510.6 365.48 510.807 364.905 510.571C364.345 510.32 364.05 509.716 364.271 509.215Z" fill="#C7C7C7"/>
<path d="M362.385 375.066C361.339 373.828 300.699 345.689 245.777 387.595C195.293 426.125 177.752 498.543 184.459 500.282C192.669 502.405 215.162 467.84 258.336 448.854C273.651 442.118 298.016 448.854 298.016 448.854L362.371 375.066H362.385Z" fill="#275AFF"/>
<path opacity="0.1" d="M298.045 448.84C298.045 448.84 287.476 445.921 275.891 445.862C285.413 425.934 303.189 388.745 314.731 364.674C341.896 364.925 361.795 374.344 362.4 375.051L298.06 448.84H298.045Z" fill="#171717"/>
<path d="M462.279 492.883C463.325 494.121 481.16 558.55 430.838 605.865C384.569 649.377 310.25 654.816 309.646 647.918C308.894 639.472 346.673 622.934 372.468 583.445C381.606 569.442 378.968 544.296 378.968 544.296L462.293 492.883H462.279Z" fill="#275AFF"/>
<path opacity="0.1" d="M464.682 541.937C438.828 549.47 399.177 561.011 378.217 567.099C380.148 555.498 378.969 544.311 378.969 544.311L462.279 492.897C462.883 493.605 468.971 514.963 464.667 541.952L464.682 541.937Z" fill="#171717"/>
<path d="M321.098 571.639L261.873 501.786C261.873 501.786 292.753 418.962 366.173 363.333C402.832 335.592 445.843 314.809 484.344 301.071C537.482 282.027 581.937 276.5 588.821 284.621C595.734 292.773 582.984 335.71 555.538 385.045C535.654 420.745 508.119 459.777 474.748 491.394C407.858 554.717 321.098 571.639 321.098 571.639Z" fill="#E7E7E7"/>
<path d="M464.975 461.487C442.732 480.354 409.405 477.597 390.538 455.355C371.671 433.112 374.427 399.785 396.67 380.918C418.912 362.051 452.24 364.792 471.107 387.05C489.974 409.292 487.218 442.619 464.975 461.487Z" fill="#E7E7E7"/>
<path d="M467.864 456.578C445.621 475.445 412.294 472.689 393.427 450.446C374.559 428.204 377.316 394.877 399.558 376.009C421.801 357.142 455.128 359.884 473.995 382.141C492.863 404.384 490.106 437.711 467.864 456.578Z" fill="#275AFF"/>
<path d="M457.413 444.211C441.995 457.3 418.883 455.414 405.779 439.996C392.69 424.578 394.576 401.465 409.994 388.361C425.413 375.272 448.525 377.159 461.629 392.577C474.718 407.995 472.831 431.107 457.413 444.211Z" fill="#E7E7E7"/>
<path d="M457.429 444.211C453.862 447.233 449.882 449.473 445.711 450.903L416.29 448.501C412.413 446.408 408.831 443.548 405.809 439.996C403.613 437.401 401.844 434.601 400.488 431.653L464.032 436.841C462.219 439.524 460.023 442.015 457.429 444.211Z" fill="#F6F6F6"/>
<path d="M464.799 396.94L406.148 392.15C407.313 390.823 408.595 389.541 409.981 388.362C425.414 375.258 448.526 377.144 461.615 392.577C462.794 393.963 463.856 395.422 464.784 396.925L464.799 396.94Z" fill="#F6F6F6"/>
<path d="M467.982 429.25L397.82 423.531C397.584 422.455 397.422 421.394 397.318 420.274L469.014 426.125C468.734 427.172 468.38 428.219 467.982 429.265V429.25Z" fill="#F6F6F6"/>
<path d="M555.538 385.045L484.344 301.071C537.481 282.027 581.937 276.5 588.821 284.621C595.734 292.773 582.984 335.71 555.538 385.045Z" fill="#275AFF"/>
<path d="M505.274 308.161C503.977 309.267 502.031 309.104 500.926 307.807C499.82 306.51 499.983 304.565 501.28 303.459C502.577 302.354 504.522 302.516 505.628 303.813C506.733 305.11 506.571 307.056 505.274 308.161Z" fill="#E7E7E7"/>
<path d="M517.936 323.107C516.639 324.213 514.693 324.051 513.588 322.754C512.482 321.457 512.645 319.511 513.942 318.405C515.239 317.3 517.185 317.462 518.29 318.759C519.396 320.056 519.233 322.002 517.936 323.107Z" fill="#E7E7E7"/>
<path d="M530.598 338.039C529.301 339.145 527.356 338.982 526.25 337.685C525.145 336.388 525.307 334.443 526.604 333.337C527.901 332.232 529.847 332.394 530.952 333.691C532.058 334.988 531.896 336.934 530.598 338.039Z" fill="#E7E7E7"/>
<path d="M543.274 352.986C541.977 354.091 540.031 353.929 538.926 352.632C537.82 351.335 537.983 349.389 539.28 348.284C540.577 347.178 542.522 347.34 543.628 348.637C544.733 349.934 544.571 351.88 543.274 352.986Z" fill="#E7E7E7"/>
<path d="M555.936 367.917C554.639 369.022 552.693 368.86 551.588 367.563C550.482 366.266 550.645 364.32 551.942 363.215C553.239 362.109 555.185 362.272 556.29 363.569C557.396 364.866 557.233 366.811 555.936 367.917Z" fill="#E7E7E7"/>
<path d="M278.956 500.15C277.659 501.255 275.713 501.093 274.608 499.796C273.502 498.499 273.664 496.553 274.961 495.448C276.258 494.342 278.204 494.504 279.31 495.801C280.415 497.098 280.253 499.044 278.956 500.15Z" fill="#E7E7E7"/>
<path d="M291.632 515.096C290.334 516.201 288.389 516.039 287.283 514.742C286.178 513.445 286.34 511.499 287.637 510.394C288.934 509.288 290.88 509.451 291.985 510.748C293.091 512.045 292.929 513.99 291.632 515.096Z" fill="#E7E7E7"/>
<path d="M304.294 530.028C302.997 531.133 301.051 530.971 299.945 529.674C298.84 528.377 299.002 526.431 300.299 525.326C301.596 524.22 303.542 524.382 304.647 525.679C305.753 526.976 305.591 528.922 304.294 530.028Z" fill="#E7E7E7"/>
<path d="M316.956 544.974C315.659 546.08 313.713 545.917 312.608 544.62C311.502 543.323 311.664 541.378 312.961 540.272C314.258 539.167 316.204 539.329 317.31 540.626C318.415 541.923 318.253 543.869 316.956 544.974Z" fill="#E7E7E7"/>
<path d="M329.618 559.906C328.321 561.011 326.375 560.849 325.27 559.552C324.164 558.255 324.326 556.309 325.623 555.203C326.92 554.098 328.866 554.26 329.972 555.557C331.077 556.854 330.915 558.8 329.618 559.906Z" fill="#E7E7E7"/>
<path opacity="0.2" d="M585.49 282.543C544.483 285.461 473.495 310.313 398.749 368.919C343.533 412.211 303.248 487.974 284.469 528.435L261.873 501.786C261.873 501.786 292.753 418.961 366.173 363.333C402.832 335.577 445.843 314.809 484.344 301.071C531.969 283.987 572.607 277.797 585.49 282.543Z" fill="#E7E7E7"/>
<path d="M294.64 583.018L246.484 526.21L265.219 505.736L317.9 567.88L294.64 583.018Z" fill="#275AFF"/>
<path opacity="0.1" d="M317.899 567.88L306.564 575.25L258.055 513.563L265.218 505.751L317.899 567.88Z" fill="#171717"/>
<path d="M554.787 392.636L532.78 391.162L522.433 412.122L523.376 388.774L503.359 379.518L525.587 379.739L535.699 360.031L535.154 382.171L554.787 392.636Z" fill="#E7E7E7"/>
<path d="M549.378 311.345L537.07 310.534L531.292 322.253L531.822 309.193L520.635 304.019L533.046 304.137L538.706 293.126L538.411 305.508L549.378 311.345Z" fill="#E7E7E7"/>
<path d="M449.852 561.218L437.559 560.407L431.781 572.111L432.297 559.066L421.109 553.892L433.535 554.01L439.195 542.999L438.886 555.381L449.852 561.218Z" fill="#E7E7E7"/>
<path d="M230.934 452.51L218.627 451.685L212.848 463.403L213.379 450.358L202.191 445.184L214.617 445.302L220.263 434.292L219.968 446.658L230.934 452.51Z" fill="#E7E7E7"/>
<path opacity="0.6" d="M284.057 570.342C261.74 585.391 242.018 604.612 227.632 627.548C213.231 650.395 204.299 677.03 203.473 704.564C203.119 718.302 204.785 732.187 208.499 745.659C212.214 759.132 217.977 772.176 225.539 784.278C233.086 796.394 242.401 807.538 252.97 817.517C263.539 827.496 275.345 836.31 287.919 844.019C274.549 837.828 261.652 830.385 249.668 821.452C237.699 812.535 226.659 802.113 217.167 790.233C207.674 778.367 199.744 765.028 193.922 750.656C188.085 736.299 184.355 720.94 182.94 705.272C180.169 673.861 186.802 641.624 200.54 612.867C214.248 583.991 234.81 558.579 259.058 537.737L284.042 570.356L284.057 570.342Z" fill="#275AFF"/>
<path d="M245.866 604.583L237.096 606.204L235.12 615.461L233.16 606.204L224.375 604.568L233.131 602.431L235.12 593.69L237.125 602.431L245.866 604.583Z" fill="#E7E7E7"/>
<path d="M213.54 777.969L208.632 778.883L207.541 784.057L206.436 778.883L201.527 777.969L206.421 776.775L207.541 771.896L208.662 776.775L213.54 777.969Z" fill="#E7E7E7"/>
<path d="M210.902 733.056L205.993 733.956L204.903 739.144L203.797 733.956L198.889 733.056L203.782 731.862L204.903 726.969L206.023 731.862L210.902 733.056Z" fill="#E7E7E7"/>
<path d="M239.38 575.722L234.472 576.621L233.366 581.795L232.276 576.621L227.367 575.707L232.261 574.513L233.366 569.634L234.487 574.513L239.38 575.722Z" fill="#E7E7E7"/>
<path d="M225.156 789.172C223.328 789.172 223.328 792.016 225.156 792.016C226.984 792.016 226.984 789.172 225.156 789.172Z" fill="#E7E7E7"/>
<path d="M265.779 568.779C263.951 568.779 263.951 571.624 265.779 571.624C267.607 571.624 267.607 568.779 265.779 568.779Z" fill="#E7E7E7"/>
<path d="M189.16 695.705C187.332 695.705 187.332 698.55 189.16 698.55C190.988 698.55 190.988 695.705 189.16 695.705Z" fill="#E7E7E7"/>
<path d="M222.621 781.757C221.324 781.757 221.324 783.777 222.621 783.777C223.918 783.777 223.918 781.757 222.621 781.757Z" fill="#E7E7E7"/>
<path d="M188.645 645.972C187.348 645.972 187.348 647.992 188.645 647.992C189.942 647.992 189.942 645.972 188.645 645.972Z" fill="#E7E7E7"/>
<path d="M198.889 748.946C195.38 748.946 195.366 754.4 198.889 754.4C202.411 754.4 202.411 748.946 198.889 748.946Z" fill="#E7E7E7"/>
<path d="M201.527 636.716C198.019 636.716 198.004 642.17 201.527 642.17C205.05 642.17 205.05 636.716 201.527 636.716Z" fill="#E7E7E7"/>
</g>
<defs>
<linearGradient id="paint0_linear_427_1207" x1="547.599" y1="1.49407" x2="117.858" y2="1499.3" gradientUnits="userSpaceOnUse">
<stop stop-color="#0E216D"/>
<stop offset="0.13" stop-color="#0F2373"/>
<stop offset="0.31" stop-color="#122B86"/>
<stop offset="0.53" stop-color="#1837A5"/>
<stop offset="0.78" stop-color="#1F47D0"/>
<stop offset="1" stop-color="#285AFF"/>
</linearGradient>
<linearGradient id="paint1_linear_427_1207" x1="306.5" y1="719.266" x2="306.5" y2="1596.1" gradientUnits="userSpaceOnUse">
<stop stop-color="#090F27"/>
<stop offset="0.12" stop-color="#0B1538"/>
<stop offset="0.35" stop-color="#112465"/>
<stop offset="0.67" stop-color="#1C3DAE"/>
<stop offset="1" stop-color="#285AFF"/>
</linearGradient>
<linearGradient id="paint2_linear_427_1207" x1="306.5" y1="-425.253" x2="306.5" y2="1028.33" gradientUnits="userSpaceOnUse">
<stop stop-color="#090F27"/>
<stop offset="0.12" stop-color="#0B1538"/>
<stop offset="0.35" stop-color="#112465"/>
<stop offset="0.67" stop-color="#1C3DAE"/>
<stop offset="1" stop-color="#285AFF"/>
</linearGradient>
<clipPath id="clip0_427_1207">
<rect width="1499" height="1334" fill="white" transform="translate(-296)"/>
</clipPath>
</defs>
</svg>
