<svg width="37" height="37" viewBox="0 0 37 37" fill="none" xmlns="http://www.w3.org/2000/svg">
<path d="M15.0918 26.6478C15.0369 26.8657 13.6658 31.9999 6.12413 31.9999C5.82576 31.9999 5.53961 31.8814 5.32864 31.6704C5.11766 31.4595 4.99913 31.1733 4.99913 30.8749C4.99913 23.3332 10.1333 21.9621 10.3513 21.9073C10.6409 21.8349 10.9474 21.8806 11.2034 22.0342C11.4593 22.1878 11.6437 22.4368 11.7161 22.7264C11.7884 23.016 11.7428 23.3225 11.5892 23.5785C11.4355 23.8344 11.1865 24.0188 10.8969 24.0912C10.7704 24.1263 7.74413 25.0109 7.30257 29.6965C11.9882 29.2549 12.8741 26.2343 12.9107 26.0937C12.9853 25.8045 13.1717 25.5567 13.429 25.4049C13.6862 25.2532 13.9933 25.2098 14.2825 25.2844C14.5717 25.359 14.8195 25.5454 14.9712 25.8027C15.123 26.0599 15.1664 26.367 15.0918 26.6562V26.6478ZM28.1699 17.1696L27.4991 17.8404V26.0431C27.5008 26.3397 27.4435 26.6337 27.3305 26.9079C27.2175 27.1822 27.0511 27.4312 26.841 27.6406L22.0148 32.464C21.8066 32.6736 21.5591 32.8399 21.2863 32.9534C21.0136 33.0668 20.7211 33.1251 20.4257 33.1249C20.1819 33.1249 19.9397 33.0855 19.7085 33.0082C19.3115 32.8769 18.9592 32.6372 18.6913 32.3161C18.4234 31.995 18.2506 31.6054 18.1926 31.1913L17.4374 25.7787L11.2204 19.5617L5.81054 18.8065C5.39589 18.7483 5.0057 18.5757 4.68386 18.3078C4.36201 18.04 4.12128 17.6877 3.98875 17.2905C3.85621 16.8934 3.83713 16.4671 3.93364 16.0597C4.03016 15.6522 4.23844 15.2798 4.53507 14.9843L9.35851 10.1581C9.56786 9.94795 9.81691 9.78156 10.0912 9.66858C10.3654 9.5556 10.6594 9.49827 10.956 9.49994H19.1587L19.8294 8.82916C23.5813 5.07869 28.1024 4.91697 29.8715 5.02244C30.42 5.05578 30.9374 5.28872 31.326 5.67731C31.7146 6.0659 31.9475 6.58328 31.9808 7.13182C32.0835 8.89666 31.9218 13.4178 28.1713 17.1696H28.1699ZM6.12413 16.579L11.3484 17.3074L16.9087 11.7499H10.956L6.12413 16.579ZM13.341 18.4999L18.4991 23.6581L26.578 15.5792C27.6668 14.4978 28.5115 13.1958 29.0553 11.7609C29.5991 10.3259 29.8294 8.79116 29.7308 7.25979C28.2003 7.16487 26.6671 7.39764 25.2336 7.94255C23.8002 8.48745 22.4995 9.33195 21.4185 10.4196L13.341 18.4999ZM25.2491 20.0904L19.6902 25.6493L20.4215 30.8749L25.2491 26.0431V20.0904Z" fill="#F6F6F6"/>
</svg>
