<svg width="36" height="37" viewBox="0 0 36 37" fill="none" xmlns="http://www.w3.org/2000/svg">
<path d="M32.4736 30.3124C30.3318 26.6098 27.0314 23.9548 23.1797 22.6962C25.0849 21.562 26.5651 19.8337 27.3931 17.7768C28.221 15.7199 28.3509 13.4481 27.7627 11.3103C27.1745 9.17242 25.9009 7.28675 24.1373 5.94284C22.3737 4.59894 20.2177 3.87109 18.0004 3.87109C15.7832 3.87109 13.6272 4.59894 11.8636 5.94284C10.1 7.28675 8.82634 9.17242 8.23817 11.3103C7.65 13.4481 7.77986 15.7199 8.6078 17.7768C9.43574 19.8337 10.916 21.562 12.8212 22.6962C8.9695 23.9534 5.66904 26.6084 3.52732 30.3124C3.44878 30.4405 3.39668 30.583 3.3741 30.7315C3.35153 30.88 3.35893 31.0316 3.39587 31.1772C3.43281 31.3228 3.49854 31.4596 3.58918 31.5794C3.67982 31.6992 3.79354 31.7996 3.92363 31.8747C4.05372 31.9499 4.19754 31.9982 4.34661 32.0169C4.49568 32.0355 4.64697 32.0241 4.79157 31.9834C4.93616 31.9426 5.07113 31.8733 5.1885 31.7795C5.30588 31.6858 5.40328 31.5694 5.47497 31.4374C8.12435 26.8587 12.8072 24.1249 18.0004 24.1249C23.1937 24.1249 27.8765 26.8587 30.5259 31.4374C30.5976 31.5694 30.695 31.6858 30.8124 31.7795C30.9298 31.8733 31.0647 31.9426 31.2093 31.9834C31.3539 32.0241 31.5052 32.0355 31.6543 32.0169C31.8033 31.9982 31.9472 31.9499 32.0772 31.8747C32.2073 31.7996 32.3211 31.6992 32.4117 31.5794C32.5023 31.4596 32.5681 31.3228 32.605 31.1772C32.642 31.0316 32.6494 30.88 32.6268 30.7315C32.6042 30.583 32.5521 30.4405 32.4736 30.3124ZM10.1254 13.9999C10.1254 12.4424 10.5873 10.9198 11.4526 9.6248C12.3179 8.32977 13.5478 7.32041 14.9868 6.72437C16.4258 6.12833 18.0092 5.97238 19.5368 6.27624C21.0644 6.58009 22.4676 7.33011 23.5689 8.43145C24.6702 9.53279 25.4203 10.936 25.7241 12.4636C26.028 13.9912 25.872 15.5746 25.276 17.0136C24.68 18.4525 23.6706 19.6824 22.3756 20.5477C21.0805 21.4131 19.558 21.8749 18.0004 21.8749C15.9125 21.8727 13.9108 21.0423 12.4344 19.5659C10.9581 18.0896 10.1277 16.0878 10.1254 13.9999Z" fill="#F6F6F6"/>
</svg>
