<svg width="18" height="22" viewBox="0 0 18 22" fill="none" xmlns="http://www.w3.org/2000/svg">
<path d="M8.96008 0.898926C6.77148 0.901408 4.67323 1.77187 3.12565 3.31934C1.57808 4.86681 0.707561 6.96492 0.705078 9.15338C0.705078 16.2166 8.20962 21.551 8.52951 21.7742C8.65569 21.8626 8.80602 21.91 8.96008 21.91C9.11414 21.91 9.26447 21.8626 9.39065 21.7742C9.71053 21.551 17.2151 16.2166 17.2151 9.15338C17.2126 6.96492 16.3421 4.86681 14.7945 3.31934C13.2469 1.77187 11.1487 0.901408 8.96008 0.898926ZM8.96008 6.15176C9.55378 6.15176 10.1342 6.3278 10.6278 6.65762C11.1214 6.98744 11.5062 7.45623 11.7334 8.00471C11.9606 8.55318 12.02 9.15671 11.9042 9.73896C11.7884 10.3212 11.5025 10.8561 11.0827 11.2758C10.6629 11.6956 10.128 11.9815 9.5457 12.0973C8.96341 12.2131 8.35984 12.1537 7.81133 11.9265C7.26282 11.6993 6.794 11.3146 6.46416 10.821C6.13431 10.3274 5.95826 9.74704 5.95826 9.15338C5.95826 8.3573 6.27452 7.59382 6.83747 7.03091C7.40042 6.468 8.16395 6.15176 8.96008 6.15176Z" fill="#275AFF"/>
</svg>
