<svg width="202" height="46" viewBox="0 0 202 46" fill="none" xmlns="http://www.w3.org/2000/svg">
<path d="M31.0844 31.4171H8.20216C8.77847 36.1443 12.1221 39.1401 16.3872 39.1401C19.4415 39.1401 22.2671 37.6422 23.8234 34.9333L29.8175 37.4112C27.4539 42.1943 22.554 45.1926 16.4456 45.1926C7.22462 45.1926 0.882761 38.5055 0.882761 30.0918C0.882761 21.6781 7.33891 14.991 16.2146 14.991C24.5723 14.991 31.0285 20.9267 31.1428 29.8049L31.0844 31.4195V31.4171ZM8.95112 25.7099H23.1887C21.9777 22.77 19.6725 20.9267 16.2729 20.9267C12.8734 20.9267 10.2205 22.77 8.95356 25.7099H8.95112Z" fill="white"/>
<path d="M37.0202 0.233154H44.4563V44.614H37.0202V0.233154Z" fill="white"/>
<path d="M80.6545 31.4171H57.7722C58.3486 36.1443 61.6921 39.1401 65.9573 39.1401C69.0115 39.1401 71.8372 37.6422 73.3935 34.9333L79.3876 37.4112C77.024 42.1943 72.1241 45.1926 66.0157 45.1926C56.7947 45.1926 50.4529 38.5055 50.4529 30.0918C50.4529 21.6781 56.909 14.991 65.7847 14.991C74.1424 14.991 80.5986 20.9267 80.7129 29.8049L80.6545 31.4195V31.4171ZM58.5212 25.7099H72.7588C71.5478 22.77 69.2425 20.9267 65.843 20.9267C62.4435 20.9267 59.7906 22.77 58.5236 25.7099H58.5212Z" fill="white"/>
<path d="M81.863 15.5649H89.8755L97.0806 31.9351L104.286 15.5649H112.298L97.0806 45.7666L81.863 15.5649Z" fill="white"/>
<path d="M113.451 30.0335C113.451 21.6174 119.963 14.8743 127.803 14.8743C131.954 14.8743 135.122 16.3722 137.255 18.8501V15.5649H144.747V44.6139H137.773L137.6 40.8666C135.409 43.5756 132.124 45.1902 127.803 45.1902C119.963 45.1902 113.451 38.503 113.451 30.031V30.0335ZM137.486 30.0335C137.486 25.423 133.855 21.7341 129.242 21.7341C124.629 21.7341 120.943 25.423 120.943 30.0335C120.943 34.644 124.573 38.3912 129.242 38.3912C133.911 38.3912 137.486 34.644 137.486 30.0335Z" fill="white"/>
<path d="M155.643 21.6173H149.936V15.5648H155.643V5.13281H163.135V15.5648H168.784V21.6173H163.135V44.6138H155.643V21.6173Z" fill="white"/>
<path d="M201.062 31.4171H178.18C178.756 36.1443 182.1 39.1401 186.365 39.1401C189.419 39.1401 192.245 37.6422 193.801 34.9333L199.795 37.4112C197.432 42.1943 192.532 45.1926 186.423 45.1926C177.203 45.1926 170.861 38.5055 170.861 30.0918C170.861 21.6781 177.317 14.991 186.192 14.991C194.55 14.991 201.006 20.9267 201.121 29.8049L201.062 31.4195V31.4171ZM178.929 25.7099H193.167C191.956 22.77 189.65 20.9267 186.251 20.9267C182.851 20.9267 180.198 22.77 178.931 25.7099H178.929Z" fill="white"/>
</svg>
