<svg width="51" height="48" viewBox="0 0 51 48" fill="none" xmlns="http://www.w3.org/2000/svg">
<path d="M48.2298 26.4833L46.0534 17.8581L45.1488 14.2786L38.3012 20.9317L37.9632 21.26L28.3337 30.6147L35.3491 32.6039C34.9771 33.0683 34.571 33.5133 34.1357 33.934C29.3331 38.5883 22.2982 38.8582 16.4913 34.165L42.2624 9.20123L40.5651 7.31911C30.7508 -2.55114 17.0068 -2.19612 7.59131 6.92274C-2.40538 16.6057 -2.3835 31.1789 6.79858 40.6552C15.9782 50.1339 30.4128 50.7467 40.801 40.6868C42.5153 39.026 43.9427 37.2362 45.0783 35.3638L50.8828 37.0101L48.2249 26.4857L48.2298 26.4833ZM14.135 13.5442C17.9649 9.83348 22.573 9.39577 27.1446 11.3873L11.11 26.9186C9.33241 22.2254 10.1762 17.3815 14.135 13.5467V13.5442Z" fill="white"/>
</svg>
